<svg _ngcontent-serverApp-c47="" xmlns="http://www.w3.org/2000/svg" xml:space="preserve" version="1.1" shape-rendering="geometricPrecision" text-rendering="geometricPrecision" image-rendering="optimizeQuality" fill-rule="evenodd" clip-rule="evenodd" viewBox="0 0 8500 12000" xmlns:xlink="http://www.w3.org/1999/xlink">
  <defs _ngcontent-serverApp-c47="">
    <clipPath _ngcontent-serverApp-c47="" id="id0">
      <path _ngcontent-serverApp-c47="" d="M3699 1121l841 0c48,0 101,39 88,84l-150 505c-7,24 -22,46 -49,46l-618 0c-28,0 -44,-23 -52,-50l-150 -500c-13,-45 41,-85 90,-85z"></path>
    </clipPath>
  </defs>
  <g _ngcontent-serverApp-c47="" id="Layer_x0020_1">
    <metadata _ngcontent-serverApp-c47="" id="CorelCorpID_0Corel-Layer"></metadata>
    <path _ngcontent-serverApp-c47="" stroke="black" stroke-width="13.8757" d="M5405 11828l0 0zm66 -243c1,-5 2,-9 3,-12l-9 -46 0 -9c-28,-60 -99,-95 -175,-127 -3,-79 -5,-157 -8,-236 -137,7 -273,14 -410,22 -166,164 -217,134 -433,133 -253,-2 -506,-1 -759,-1 -4,0 -8,0 -12,0 -117,-1 -226,-21 -287,-132 -150,-8 -299,-15 -449,-22 -3,79 -6,157 -9,236 -58,42 -117,85 -175,127 3,15 6,31 8,46l15 111c11,59 27,122 47,146 1,162 78,230 243,209 12,-1 55,-10 71,-18 2,-1 3,-3 4,-4 4,-4 6,-11 9,-20 7,-20 18,-47 57,-65 45,-19 175,-12 230,-12 504,-1 1009,1 1512,-4 87,-1 109,-2 146,76 2,4 4,7 6,10 4,6 8,8 17,12 3,2 6,3 11,6 78,39 212,53 259,-43 21,-43 23,-93 22,-140 32,-17 56,-148 69,-224l-3 -19zm-959 -408c-264,0 -528,0 -792,0 26,12 59,20 101,20 3,0 5,0 8,0 169,1 337,1 506,1 83,0 139,-7 177,-21z" style="fill: rgb(255, 255, 255);"></path>
    <path _ngcontent-serverApp-c47="" stroke="#373435" stroke-width="6.93981" d="M4975 10783c1,1 2,1 4,1 -2,0 -3,0 -4,-1zm-41 129l35 -129c2,0 3,0 4,0 1,0 2,0 2,0l4 1 1 -2c1,1 1,2 2,3 -1,-1 -1,-2 -2,-3l43 -65 -1821 -11 69 73 37 133 73 265c61,111 170,131 287,132l12 0c253,0 506,-1 759,1 216,1 267,31 433,-133l74 -265 -12 0zm-1659 -134l3 0c1,0 -2,0 -3,0zm-2 0l-2 1 2 -1z" style="fill: rgb(255, 255, 255);"></path>
    <path _ngcontent-serverApp-c47="" fill="none" stroke="black" stroke-width="13.8757" d="M5462 4647c2,960 3,1921 4,2881 12,50 24,99 36,148 -7,318 -14,636 -21,954 -20,54 -40,107 -60,160 -24,134 -48,267 -73,400 -174,522 -708,470 -1190,501l0 7c-15,-1 -30,-3 -46,-4 -15,1 -31,3 -46,4l0 -7c-482,-31 -1016,21 -1190,-501 -24,-133 -48,-266 -73,-400 -20,-53 -40,-106 -60,-160 -7,-318 -13,-636 -20,-954 12,-49 23,-98 35,-148 2,-960 3,-1921 4,-2881l0 0 56 40 0 0 112 29c27,-50 55,-100 83,-150l42 -36c307,-181 694,-232 1046,-231 338,1 783,23 1045,236l66 53 72 128 112 -29 0 0 55 -40 0 -9 11 9z"></path>
    <path _ngcontent-serverApp-c47="" stroke="black" stroke-width="13.8757" d="M3259 9329c-1,56 22,123 100,209 484,92 991,91 1517,3 58,-44 87,-127 104,-227l0 0 7 -1c1,-6 2,-13 3,-19 0,-1 0,-1 0,-1 0,0 0,0 0,0 35,-205 49,-378 38,-511 -639,225 -1241,209 -1811,-10 3,185 11,371 42,557z" style="fill: rgb(255, 255, 255);"></path>
    <path _ngcontent-serverApp-c47="" stroke="black" stroke-width="13.8757" d="M3666 1042l897 0c51,0 108,44 94,94l-12 41 134 0c17,-37 34,-73 52,-108 162,-3 323,-5 485,-8 4,13 7,26 11,39 2,127 5,254 8,381 -17,68 -34,136 -50,204 -2,4 -3,8 -5,11 36,8 91,11 121,2 1,0 2,0 3,-1 1,47 -1,97 -22,140 -46,96 -181,82 -259,42 -21,-10 -24,-10 -33,-28 -38,-77 -60,-76 -146,-76 -504,5 -1009,4 -1513,5 -55,0 -184,-8 -229,12 -58,25 -54,72 -66,85 -9,10 -62,20 -76,22 -165,21 -241,-47 -243,-209 4,4 8,7 12,8 31,9 86,6 121,-2 -2,-3 -3,-7 -5,-11 -16,-68 -33,-136 -50,-204 3,-127 6,-254 9,-381 3,-13 7,-26 10,-39 162,3 324,5 485,8 19,36 36,72 53,110l-1 -2 130 0 -11 -39c-14,-51 43,-96 96,-96z" style="fill: rgb(255, 255, 255);"></path>
    <path _ngcontent-serverApp-c47="" fill="none" stroke="black" stroke-width="13.8757" d="M5233 730c-159,88 -283,212 -402,339 162,-3 323,-5 485,-8 28,-46 57,-92 85,-138 -1,-16 -2,-33 -4,-49 -55,-48 -109,-96 -164,-144z"></path>
    <path _ngcontent-serverApp-c47="" fill="none" stroke="black" stroke-width="13.8757" d="M5316 1061c4,13 7,26 11,39 2,127 5,254 8,381 -17,68 -34,136 -50,204 -14,40 -42,60 -81,61 -187,3 -374,7 -560,10 -44,-6 -47,-38 -38,-77 61,-219 131,-429 225,-610 162,-3 323,-5 485,-8z"></path>
    <path _ngcontent-serverApp-c47="" fill="none" stroke="black" stroke-width="13.8757" d="M5383 953l8 472 -57 0 0 0 -7 -325c-4,-13 -7,-26 -11,-39l67 -108z"></path>
    <polygon _ngcontent-serverApp-c47="" fill="none" stroke="black" stroke-width="13.8757" points="5383,953 5489,1071 5481,1429 5391,1425 "></polygon>
    <path _ngcontent-serverApp-c47="" fill="none" stroke="black" stroke-width="13.8757" d="M5481 1429c-9,46 -38,257 -80,269 -30,9 -85,6 -121,-2 2,-3 3,-7 5,-11 16,-68 33,-136 50,-204l-3 -117 0 0 2 61 0 0 57 0 90 4z"></path>
    <polyline _ngcontent-serverApp-c47="" fill="none" stroke="black" stroke-width="13.8757" points="5369,742 5457,873 5489,1071 5383,953 5400,923 5397,874 5233,730 5369,742 "></polyline>
    <path _ngcontent-serverApp-c47="" stroke="black" stroke-width="13.8757" d="M5302 668l-32 -77c-12,-17 -12,-32 15,-44 90,-1 214,-12 269,80 33,54 17,101 -54,101 -58,-19 -149,-18 -172,-57l-2 0 -1 0 -2 0 -1 -1 -2 0 -1 0 -2 0 -1 0 -2 -1 -1 0 -2 0 -1 0 -2 0 -1 -1 -2 0 -1 0 -2 0 0 0z" style="fill: rgb(252, 201, 0);"></path>
    <circle _ngcontent-serverApp-c47="" fill="white" stroke="black" stroke-width="13.8757" cx="5231" cy="704" r="46"></circle>
    <path _ngcontent-serverApp-c47="" fill="white" stroke="black" stroke-width="13.8757" d="M5244 660l82 11c24,39 115,38 172,56 -49,5 -98,9 -147,13 -32,1 -63,2 -95,4l0 -1c13,-8 22,-22 22,-39 0,-21 -15,-39 -34,-44z"></path>
    <path _ngcontent-serverApp-c47="" fill="none" stroke="black" stroke-width="13.8757" d="M2997 730c159,88 283,212 402,339 -161,-3 -323,-5 -485,-8 -28,-46 -57,-92 -85,-138 1,-16 3,-33 4,-49 55,-48 110,-96 164,-144z"></path>
    <path _ngcontent-serverApp-c47="" fill="none" stroke="black" stroke-width="13.8757" d="M2914 1061c-3,13 -7,26 -10,39 -3,127 -6,254 -9,381 17,68 34,136 50,204 15,40 42,60 82,61 186,3 373,7 560,10 43,-6 46,-38 37,-77 -61,-219 -130,-429 -225,-610 -161,-3 -323,-5 -485,-8z"></path>
    <path _ngcontent-serverApp-c47="" fill="none" stroke="black" stroke-width="13.8757" d="M2847 953l-8 472 58 0 0 0 7 -325c3,-13 7,-26 10,-39l-67 -108z"></path>
    <polygon _ngcontent-serverApp-c47="" fill="none" stroke="black" stroke-width="13.8757" points="2847,953 2741,1071 2749,1429 2839,1425 "></polygon>
    <path _ngcontent-serverApp-c47="" fill="none" stroke="black" stroke-width="13.8757" d="M2749 1429c9,46 38,257 80,269 31,9 86,6 121,-2 -2,-3 -3,-7 -5,-11 -16,-68 -33,-136 -50,-204l3 -117 0 0 -1 61 0 0 -58 0 -90 4z"></path>
    <polyline _ngcontent-serverApp-c47="" fill="none" stroke="black" stroke-width="13.8757" points="2861,742 2773,873 2741,1071 2847,953 2830,923 2833,874 2997,730 2861,742 "></polyline>
    <path _ngcontent-serverApp-c47="" stroke="black" stroke-width="13.8757" d="M2911 669l33 -76c12,-18 11,-33 -15,-45 -91,-1 -214,-12 -270,80 -32,54 -16,101 54,101 58,-19 149,-18 173,-56l1 -1 2 0 1 0 2 0 1 0 2 -1 1 0 2 0 1 0 2 0 1 -1 2 0 1 0 2 0 1 0 2 -1 1 0 0 0z" style="fill: rgb(252, 201, 0);"></path>
    <circle _ngcontent-serverApp-c47="" fill="white" stroke="black" stroke-width="13.8757" cx="2981" cy="706" r="46"></circle>
    <path _ngcontent-serverApp-c47="" fill="white" stroke="black" stroke-width="13.8757" d="M2968 661l-82 12c-24,38 -115,37 -173,56 50,4 99,9 148,13 31,1 63,2 95,3l0 0c-13,-8 -22,-23 -22,-39 0,-21 14,-39 34,-45z"></path>
    <path _ngcontent-serverApp-c47="" fill="none" stroke="black" stroke-width="13.8757" d="M3256 199c567,0 1134,0 1700,0 11,0 14,10 19,19 85,165 145,332 194,500 3,10 -9,19 -19,19 -694,0 -1388,0 -2082,0 -10,0 -21,-9 -18,-19 42,-164 100,-330 187,-500 5,-9 8,-19 19,-19z"></path>
    <path _ngcontent-serverApp-c47="" fill="none" stroke="black" stroke-width="13.8757" d="M3256 199c25,-44 53,-91 74,-138 -70,-11 -73,14 -113,69 -27,38 -53,76 -78,116 -79,134 -136,278 -188,424l0 0c8,-7 18,-10 30,-10 25,0 46,20 46,46 0,13 -5,24 -14,33l43 -6 0 0c-5,-4 -8,-9 -6,-15 42,-164 100,-330 187,-500 5,-9 8,-19 19,-19z"></path>
    <path _ngcontent-serverApp-c47="" fill="none" stroke="black" stroke-width="13.8757" d="M4956 199c-25,-45 -52,-90 -74,-137 65,-18 78,21 114,70 25,34 48,68 70,104 83,136 142,284 195,434l0 0c-8,-7 -18,-10 -29,-10 -26,0 -47,20 -47,46 0,13 5,24 14,33l-43 -6 0 0c5,-4 8,-9 7,-15 -43,-164 -101,-330 -188,-500 -5,-9 -8,-19 -19,-19z"></path>
    <path _ngcontent-serverApp-c47="" fill="none" stroke="black" stroke-width="13.8757" d="M3334 59c468,-68 982,-70 1544,0 26,47 52,94 78,140 -566,0 -1133,0 -1700,0 26,-46 52,-93 78,-140z"></path>
    <path _ngcontent-serverApp-c47="" stroke="black" stroke-width="13.8757" d="M3280 218c551,0 1101,0 1652,0 10,0 14,9 18,17 83,152 141,305 188,459 3,10 -8,18 -18,18 -674,0 -1348,0 -2022,0 -10,0 -20,-8 -18,-18 42,-150 98,-303 182,-459 5,-8 8,-17 18,-17z" style="fill: rgb(252, 201, 0);"></path>
    <path _ngcontent-serverApp-c47="" stroke="black" stroke-width="13.8757" d="M3451 1177l130 0 -11 -39c-14,-51 43,-96 96,-96l897 0c51,0 108,44 94,94l-12 41 134 0c17,-37 34,-73 52,-108 113,-120 230,-237 376,-324l0 0 -51 -12 -2100 0 -40 7c150,88 268,207 383,329 18,35 36,71 52,108l0 0z" style="fill: rgb(255, 255, 255);"></path>
    <path _ngcontent-serverApp-c47="" fill="none" stroke="black" stroke-width="13.8757" d="M3666 1042l897 0c51,0 108,44 94,94l-160 568c-8,27 -24,52 -52,52l-660 0c-30,0 -47,-26 -55,-56l-160 -562c-14,-51 43,-96 96,-96z"></path>
    <g _ngcontent-serverApp-c47=""></g>
    <g _ngcontent-serverApp-c47="" clip-path="url(#id0)">
      <g _ngcontent-serverApp-c47="">
        <g _ngcontent-serverApp-c47="" id="_3130021517632">
          <line _ngcontent-serverApp-c47="" fill="none" stroke="black" stroke-width="6.93981" x1="3609" y1="1301" x2="4628" y2="1301"></line>
          <line _ngcontent-serverApp-c47="" fill="none" stroke="black" stroke-width="6.93981" x1="3609" y1="1348" x2="4628" y2="1348"></line>
          <line _ngcontent-serverApp-c47="" fill="none" stroke="black" stroke-width="6.93981" x1="3609" y1="1395" x2="4628" y2="1395"></line>
          <line _ngcontent-serverApp-c47="" fill="none" stroke="black" stroke-width="6.93981" x1="3609" y1="1442" x2="4628" y2="1442"></line>
          <line _ngcontent-serverApp-c47="" fill="none" stroke="black" stroke-width="6.93981" x1="3609" y1="1489" x2="4628" y2="1489"></line>
          <line _ngcontent-serverApp-c47="" fill="none" stroke="black" stroke-width="6.93981" x1="3609" y1="1536" x2="4628" y2="1536"></line>
          <line _ngcontent-serverApp-c47="" fill="none" stroke="black" stroke-width="6.93981" x1="3609" y1="1583" x2="4628" y2="1583"></line>
          <line _ngcontent-serverApp-c47="" fill="none" stroke="black" stroke-width="6.93981" x1="3609" y1="1630" x2="4628" y2="1630"></line>
          <line _ngcontent-serverApp-c47="" fill="none" stroke="black" stroke-width="6.93981" x1="3609" y1="1677" x2="4628" y2="1677"></line>
          <line _ngcontent-serverApp-c47="" fill="none" stroke="black" stroke-width="6.93981" x1="3609" y1="1724" x2="4628" y2="1724"></line>
        </g>
        <line _ngcontent-serverApp-c47="" fill="none" stroke="black" stroke-width="6.93981" x1="3609" y1="1253" x2="4628" y2="1253"></line>
      </g>
    </g>
    <path _ngcontent-serverApp-c47="" fill="none" stroke="black" stroke-width="13.8757" d="M3699 1121l841 0c48,0 101,39 88,84l-150 505c-7,24 -22,46 -49,46l-618 0c-28,0 -44,-23 -52,-50l-150 -500c-13,-45 41,-85 90,-85z"></path>
    <line _ngcontent-serverApp-c47="" fill="none" stroke="black" stroke-width="13.8757" x1="3609" y1="1206" x2="4628" y2="1206"></line>
    <path _ngcontent-serverApp-c47="" fill="none" stroke="black" stroke-width="13.8757" d="M2817 1690c2,162 78,230 243,209 14,-2 67,-12 76,-22 12,-13 8,-60 66,-85 45,-20 174,-12 229,-12 504,-1 1009,0 1513,-5 86,0 108,-1 146,76 9,18 12,18 33,28 78,40 213,54 259,-42 21,-43 23,-93 22,-140"></path>
    <path _ngcontent-serverApp-c47="" fill="none" stroke="#373435" stroke-width="13.8757" d="M2817 1690c2,162 78,230 243,209 14,-2 67,-12 76,-22 12,-13 8,-60 66,-85 45,-20 174,-12 229,-12 504,-1 1009,0 1513,-5 86,0 108,-1 146,76 9,18 12,18 33,28 78,40 213,54 259,-42 21,-43 23,-93 22,-140 -1,1 -2,1 -3,1 -30,9 -85,6 -121,-2 -15,33 -41,49 -76,50l-560 10c-44,-6 -47,-38 -38,-77 49,-177 104,-348 173,-502l-134 0 -148 527c-8,27 -24,52 -52,52l-16 0 -618 0 -26 0c-30,0 -47,-26 -55,-56l-149 -523 -130 0c69,154 124,325 173,502 9,39 6,71 -37,77l-560 -10c-36,-1 -62,-17 -77,-50 -35,8 -90,11 -121,2 -4,-1 -8,-4 -12,-8z"></path>
    <line _ngcontent-serverApp-c47="" fill="none" stroke="black" stroke-width="13.8757" x1="3145" y1="1857" x2="5095" y2="1861"></line>
    <path _ngcontent-serverApp-c47="" fill="none" stroke="black" stroke-width="13.8757" d="M5473 1473l0 653c0,32 -26,58 -58,58l-245 0c-32,0 -58,-26 -58,-58l0 -252c3,1 7,3 11,5 78,40 213,54 259,-42 21,-43 23,-93 22,-140l0 0c32,-17 56,-148 69,-224zm-72 225c0,0 1,0 1,0 0,0 -1,0 -1,0zm1 0c1,0 1,-1 2,-1 -1,0 -1,1 -2,1z"></path>
    <path _ngcontent-serverApp-c47="" fill="none" stroke="black" stroke-width="13.8757" d="M3131 1880l0 246c0,32 -26,58 -58,58l-245 0c-32,0 -58,-26 -58,-58l0 -582c12,60 28,123 48,146l-1 0c2,162 78,230 243,209 13,-2 55,-10 71,-19zm-310 -186c1,0 1,0 1,1 0,-1 0,-1 -1,-1zm2 1l1 1c-1,-1 -1,-1 -1,-1zm1 1c0,0 0,0 1,0 -1,0 -1,0 -1,0zm4 2c1,0 1,0 1,0 0,0 0,0 -1,0z"></path>
    <path _ngcontent-serverApp-c47="" fill="none" stroke="black" stroke-width="13.8757" d="M2928 10762l16 -38c13,-17 12,-33 -15,-44 -90,-2 -214,-12 -269,79 -33,55 -17,102 54,101l160 7 78 -66 -24 -39z"></path>
    <path _ngcontent-serverApp-c47="" fill="none" stroke="black" stroke-width="13.8757" d="M3052 10858l-1 1 -11 7 17 -2 0 0c-2,-1 -4,-3 -5,-5l0 -1 0 0 0 0z"></path>
    <path _ngcontent-serverApp-c47="" fill="none" stroke="black" stroke-width="13.8757" d="M2953 10798l-1 3 0 0c3,-2 6,-4 9,-5 -3,0 -5,1 -8,2z"></path>
    <path _ngcontent-serverApp-c47="" fill="none" stroke="black" stroke-width="13.8757" d="M3256 10331c25,-45 54,-92 74,-138 -69,-12 -72,13 -112,69 -28,38 -53,76 -78,116 -79,132 -136,275 -187,420 2,0 3,-1 5,-2l-6 4 -78 67 -56 55 169 4 47 -14c19,-16 37,-31 54,-44l-19 0c-8,0 -16,-5 -18,-12l-1 0c0,-2 0,-4 0,-7 43,-164 101,-330 188,-499 4,-10 8,-19 18,-19z"></path>
    <path _ngcontent-serverApp-c47="" fill="none" stroke="black" stroke-width="13.8757" d="M3334 10190c469,-68 982,-70 1545,0 26,47 52,94 78,141 -567,0 -1134,0 -1701,0 26,-47 52,-94 78,-141z"></path>
    <path _ngcontent-serverApp-c47="" fill="none" stroke="black" stroke-width="13.8757" d="M2818 11821c1,162 78,230 243,209 14,-1 66,-12 75,-22 13,-13 9,-60 66,-85 45,-19 175,-12 230,-12 504,-1 1009,1 1512,-4 87,-1 109,-2 146,76 9,18 13,17 34,28 78,39 212,53 259,-43 21,-43 23,-93 22,-140"></path>
    <line _ngcontent-serverApp-c47="" fill="none" stroke="black" stroke-width="13.8757" x1="3145" y1="11988" x2="5096" y2="11993"></line>
    <path _ngcontent-serverApp-c47="" fill="none" stroke="black" stroke-width="13.8757" d="M5474 11604l0 653c0,32 -26,58 -58,58l-245 0c-32,0 -58,-26 -58,-58l0 -252c3,2 6,3 11,6 78,39 212,53 259,-43 21,-43 23,-93 22,-140l0 0c32,-17 56,-148 69,-224zm-73 226c1,0 1,-1 2,-1 -1,0 -1,1 -2,1zm2 -1c1,0 1,0 2,0 -1,0 -1,0 -2,0z"></path>
    <path _ngcontent-serverApp-c47="" fill="none" stroke="black" stroke-width="13.8757" d="M3132 12012l0 245c0,32 -26,58 -58,58l-245 0c-32,0 -58,-26 -58,-58l0 -582c12,60 28,124 48,147l-1 -1c1,162 78,230 243,209 12,-1 55,-10 71,-18zm-310 -187c0,0 1,1 1,1 0,0 -1,-1 -1,-1zm1 1l1 1c0,0 0,-1 -1,-1zm1 1c1,0 1,0 1,1 0,-1 0,-1 -1,-1zm5 2c0,1 1,1 1,1 0,0 -1,0 -1,-1z"></path>
    <path _ngcontent-serverApp-c47="" fill="none" stroke="black" stroke-width="13.8757" d="M5285 10762l-16 -38c-12,-17 -11,-33 15,-44 90,-2 214,-12 269,79 33,55 17,102 -54,101l-160 7 -77 -66 23 -39z"></path>
    <path _ngcontent-serverApp-c47="" fill="none" stroke="black" stroke-width="13.8757" d="M4957 10331c-25,-45 -53,-92 -74,-138 70,-12 73,13 113,69 27,38 53,76 77,116 79,132 136,275 188,420 -2,0 -4,-1 -6,-2l6 4 78 67 57 55 -169 4 -61 -17c-3,-16 -9,-30 -17,-42 6,-1 12,-5 14,-11l0 0c1,-2 1,-4 0,-7 -42,-164 -100,-330 -187,-499 -5,-10 -9,-19 -19,-19z"></path>
    <path _ngcontent-serverApp-c47="" fill="none" stroke="black" stroke-width="13.8757" d="M2818 10922c-30,77 -44,160 -43,248 -10,10 -21,20 -31,30 1,106 3,212 4,318 58,-42 117,-85 175,-127 -2,-180 10,-346 64,-465l-169 -4z"></path>
    <path _ngcontent-serverApp-c47="" fill="none" stroke="black" stroke-width="13.8757" d="M2793 11001c-12,54 -19,110 -18,169 -10,10 -21,20 -31,30 1,106 3,212 4,318l96 -70 6 -311 -57 -136z"></path>
    <path _ngcontent-serverApp-c47="" fill="none" stroke="black" stroke-width="13.8757" d="M5396 10922c29,77 43,160 42,248 11,10 21,20 31,30 -1,106 -2,212 -4,318 -28,-60 -99,-95 -175,-127 1,-83 -1,-163 -8,-236l0 0c-9,-87 -26,-165 -55,-229l169 -4z"></path>
    <path _ngcontent-serverApp-c47="" fill="none" stroke="black" stroke-width="13.8757" d="M5420 11001c13,54 19,110 18,169 11,10 21,20 31,30 -1,106 -2,212 -4,318 -18,-38 -53,-66 -96,-90l-6 -291 57 -136z"></path>
    <path _ngcontent-serverApp-c47="" fill="none" stroke="black" stroke-width="13.8757" d="M3308 10912l1626 0 35 -129 4 0c-70,-10 -146,-10 -202,-10l-1355 0c-52,0 -97,-3 -145,6l0 0 37 133zm1674 -127c-2,-1 -5,-1 -7,-2 2,1 5,1 7,2z"></path>
    <path _ngcontent-serverApp-c47="" fill="none" stroke="black" stroke-width="13.8757" d="M4934 10912l233 0c-15,-82 -101,-115 -198,-129l-35 129z"></path>
    <path _ngcontent-serverApp-c47="" fill="none" stroke="black" stroke-width="13.8757" d="M3034 10912l274 0 -37 -133c-65,12 -136,44 -237,133z"></path>
    <path _ngcontent-serverApp-c47="" stroke="black" stroke-width="13.8757" d="M3283 10331c-65,111 -94,236 -81,375 610,4 1220,7 1830,11 12,-129 -44,-258 -104,-386 -558,0 -1087,0 -1645,0z" style="fill: rgb(252, 201, 0);"></path>
    <line _ngcontent-serverApp-c47="" fill="none" stroke="black" stroke-width="13.8757" x1="3202" y1="10706" x2="3271" y2="10779"></line>
    <line _ngcontent-serverApp-c47="" fill="none" stroke="black" stroke-width="13.8757" x1="5033" y1="10701" x2="4962" y2="10809"></line>
    <path _ngcontent-serverApp-c47="" fill="none" stroke="#373435" stroke-width="13.8757" d="M3052 10858l0 0zm219 -79l-69 -73c-13,-139 16,-264 81,-375l-27 0c-10,0 -14,9 -18,19 -87,169 -145,335 -188,499 0,3 0,5 0,7l1 0c0,1 0,2 1,2l5 6c3,2 8,4 12,4l19 0c74,-56 130,-80 183,-89z"></path>
    <path _ngcontent-serverApp-c47="" stroke="#373435" stroke-width="13.8757" d="M3202 10706l69 73c48,-9 93,-6 145,-6l1355 0c116,0 315,-1 378,94 6,-1 12,-5 14,-11l0 0c1,-2 1,-4 0,-7 -42,-164 -100,-330 -187,-499 -5,-10 -9,-19 -19,-19l-29 0c60,128 116,257 104,386l-1830 -11z" style="fill: none;"></path>
    <path _ngcontent-serverApp-c47="" stroke="black" stroke-width="13.8757" d="M5283 10771l-15 -35c-11,-16 -10,-30 14,-41 83,-1 196,-11 247,73 30,50 16,93 -49,93l-147 6 -71 -60 21 -36z" style="fill: rgb(252, 201, 0);"></path>
    <path _ngcontent-serverApp-c47="" stroke="black" stroke-width="13.8757" d="M2930 10770l15 -35c11,-16 11,-30 -14,-41 -83,-2 -198,-11 -249,73 -30,51 -16,94 50,94l148 6 72 -61 -22 -36z" style="fill: rgb(252, 201, 0);"></path>
    <path _ngcontent-serverApp-c47="" fill="none" stroke="black" stroke-width="13.8757" d="M3308 10912l73 265 -449 -22c9,-87 25,-165 55,-229l47 -14 0 0 274 0z"></path>
    <path _ngcontent-serverApp-c47="" fill="none" stroke="black" stroke-width="13.8757" d="M4946 10912l-74 265 410 -22c-9,-87 -26,-165 -55,-229l-48 -14 0 0 -233 0z"></path>
    <path _ngcontent-serverApp-c47="" fill="none" stroke="black" stroke-width="13.8757" d="M4872 11177c-166,164 -217,134 -433,133 -253,-2 -506,-1 -759,-1l-12 0c-117,-1 -226,-21 -287,-132"></path>
    <path _ngcontent-serverApp-c47="" fill="none" stroke="#373435" stroke-width="13.8757" d="M3821 11197c-205,-1 -192,-173 -232,-285l-281 0 73 265c61,111 170,131 287,132l12 0c253,0 506,-1 759,1 216,1 267,31 433,-133l74 -265 -12 0 -310 0c-58,178 32,286 -289,286 -169,0 -337,0 -506,-1l-8 0z"></path>
    <path _ngcontent-serverApp-c47="" fill="none" stroke="black" stroke-width="13.8757" d="M2748 11518c3,15 6,31 8,46 70,-68 159,-111 267,-129 743,-1 1486,-2 2230,-2 111,32 178,70 212,113 0,-9 0,-19 0,-28 -28,-60 -99,-95 -175,-127 -3,-79 -5,-157 -8,-236 -137,7 -273,14 -410,22 -166,164 -217,134 -433,133 -253,-2 -506,-1 -759,-1 -4,0 -8,0 -12,0 -117,-1 -226,-21 -287,-132 -150,-8 -299,-15 -449,-22 -3,79 -6,157 -9,236 -58,42 -117,85 -175,127zm1764 -341c-264,0 -528,0 -792,0 26,12 59,20 101,20 3,0 5,0 8,0 169,1 337,1 506,1 83,0 139,-7 177,-21z"></path>
    <line _ngcontent-serverApp-c47="" fill="none" stroke="black" stroke-width="13.8757" x1="2756" y1="11564" x2="2771" y2="11675"></line>
    <line _ngcontent-serverApp-c47="" fill="none" stroke="black" stroke-width="13.8757" x1="5474" y1="11604" x2="5465" y2="11546"></line>
    <path _ngcontent-serverApp-c47="" fill="none" stroke="#373435" stroke-width="13.8757" d="M5405 11828l0 0zm-22 140c21,-43 23,-93 22,-140 32,-17 56,-148 69,-224l-9 -58c-34,-43 -101,-81 -212,-113l-2230 2c-108,18 -197,61 -267,129l15 111c11,59 27,122 47,146 1,162 78,230 243,209 12,-1 55,-10 71,-18 2,-1 3,-3 4,-4 4,-4 6,-11 9,-20 7,-20 18,-47 57,-65 45,-19 175,-12 230,-12 504,-1 1009,1 1512,-4 87,-1 109,-2 146,76 2,4 4,7 6,10 4,6 8,8 17,12 3,2 6,3 11,6 78,39 212,53 259,-43z"></path>
    <path _ngcontent-serverApp-c47="" fill="none" stroke="#373435" stroke-width="13.8757" d="M5383 11871c14,-24 85,-271 91,-298l-9 -47c-34,-36 -101,-67 -212,-93l-2230 1c-108,15 -197,50 -267,106l15 91c35,144 62,315 290,291 12,-1 55,-8 71,-15 2,-1 3,-2 4,-3 4,-3 6,-9 9,-16 7,-17 18,-39 57,-53 10,-4 24,-6 39,-8l0 -32c0,-51 41,-92 91,-92l1 0c50,0 91,41 91,92l0 30c3,0 5,0 8,0 465,-1 931,0 1396,-3l0 -27c0,-51 41,-92 91,-92l0 0c50,0 91,41 91,92l0 27c36,5 55,18 80,61 2,4 4,6 6,8 4,5 8,7 17,11 3,1 6,2 11,4 78,32 212,44 259,-35z"></path>
    <circle _ngcontent-serverApp-c47="" fill="none" stroke="black" stroke-width="13.8757" cx="4918" cy="11808" r="71"></circle>
    <circle _ngcontent-serverApp-c47="" fill="none" stroke="black" stroke-width="13.8757" cx="3333" cy="11808" r="71"></circle>
    <path _ngcontent-serverApp-c47="" fill="none" stroke="black" stroke-width="13.8757" d="M3345 2797c-208,80 -340,222 -448,425 -27,488 -53,977 -79,1465 37,10 74,20 112,29 27,-50 55,-100 83,-150 79,-646 188,-1276 332,-1769z"></path>
    <polygon _ngcontent-serverApp-c47="" fill="none" stroke="black" stroke-width="13.8757" points="2762,4647 2754,3368 2887,3089 2897,3222 2818,4687 "></polygon>
    <line _ngcontent-serverApp-c47="" fill="none" stroke="black" stroke-width="13.8757" x1="2897" y1="3222" x2="2887" y2="3089"></line>
    <path _ngcontent-serverApp-c47="" fill="none" stroke="black" stroke-width="13.8757" d="M2887 3089c49,-239 241,-438 650,-577 -18,30 -37,60 -56,90 -304,78 -478,259 -594,487z"></path>
    <path _ngcontent-serverApp-c47="" fill="none" stroke="black" stroke-width="13.8757" d="M3481 2602c-6,14 -12,29 -19,43 -276,84 -438,255 -575,444 116,-228 290,-409 594,-487z"></path>
    <path _ngcontent-serverApp-c47="" fill="none" stroke="black" stroke-width="13.8757" d="M3537 2512c47,-12 94,-24 141,-36 -36,44 -72,89 -107,134 -36,12 -73,24 -109,35 7,-14 13,-29 19,-43 19,-30 38,-60 56,-90"></path>
    <path _ngcontent-serverApp-c47="" fill="none" stroke="black" stroke-width="13.8757" d="M4868 2797c208,80 340,222 449,425 26,488 52,977 79,1465 -38,10 -75,20 -112,29 -28,-50 -56,-100 -84,-150 -79,-646 -187,-1276 -332,-1769z"></path>
    <polygon _ngcontent-serverApp-c47="" fill="none" stroke="black" stroke-width="13.8757" points="5451,4647 5459,3368 5326,3089 5317,3222 5396,4687 "></polygon>
    <line _ngcontent-serverApp-c47="" fill="none" stroke="black" stroke-width="13.8757" x1="5317" y1="3222" x2="5326" y2="3089"></line>
    <path _ngcontent-serverApp-c47="" fill="none" stroke="black" stroke-width="13.8757" d="M5326 3089c-48,-239 -241,-438 -650,-577 19,30 38,60 56,90 305,78 478,259 594,487z"></path>
    <path _ngcontent-serverApp-c47="" fill="none" stroke="black" stroke-width="13.8757" d="M4732 2602c7,14 13,29 19,43 276,84 438,255 575,444 -116,-228 -289,-409 -594,-487z"></path>
    <g _ngcontent-serverApp-c47="">
      <path _ngcontent-serverApp-c47="" d="M3456 2650c-202,547 -288,1210 -401,1880 307,-181 694,-232 1046,-231 338,1 783,23 1045,236 -49,-619 -164,-1245 -401,-1885 -36,-12 -72,-24 -108,-36l-2 -2c40,78 -379,31 -572,30 -162,-1 -561,60 -492,-32l104 -131 -3 1c-36,45 -72,89 -108,134 -36,12 -72,24 -108,36zm967 -192c-5,0 -9,-1 -13,-2l13 2zm-54 -8c-7,-1 -14,-2 -21,-3 7,1 14,2 21,3zm-53 -7c-4,0 -7,0 -10,-1 3,1 6,1 10,1z" style="fill: rgb(252, 201, 0);"></path>
      <path _ngcontent-serverApp-c47="" id="1" fill="none" stroke="black" stroke-width="13.8757" d="M3456 2650c-202,547 -288,1210 -401,1880 307,-181 694,-232 1046,-231 338,1 783,23 1045,236 -49,-619 -164,-1245 -401,-1885 -36,-12 -72,-24 -108,-36l-2 -2c40,78 -379,31 -572,30 -162,-1 -561,60 -492,-32l104 -131 -3 1c-36,45 -72,89 -108,134 -36,12 -72,24 -108,36zm967 -192c-5,0 -9,-1 -13,-2m-41 -6c-7,-1 -14,-2 -21,-3 7,1 14,2 21,3zm-53 -7c-4,0 -7,0 -10,-1 3,1 6,1 10,1z"></path>
    </g>
    <polygon _ngcontent-serverApp-c47="" fill="none" stroke="black" stroke-width="13.8757" points="4529,2480 4676,2512 4732,2602 4745,2650 4637,2614 "></polygon>
    <path _ngcontent-serverApp-c47="" fill="none" stroke="black" stroke-width="13.8757" d="M3571 2610c-69,92 330,31 492,32 193,1 612,48 572,-30"></path>
    <path _ngcontent-serverApp-c47="" fill="none" stroke="#373435" stroke-width="13.8757" d="M3571 2610c-69,92 330,31 492,32 193,1 612,48 572,-30l-106 -132c-284,-67 -569,-61 -854,-1l-104 131z"></path>
    <line _ngcontent-serverApp-c47="" fill="none" stroke="black" stroke-width="13.8757" x1="3649" y1="2512" x2="4553" y2="2509"></line>
    <line _ngcontent-serverApp-c47="" fill="none" stroke="black" stroke-width="13.8757" x1="3623" y1="2545" x2="4582" y2="2545"></line>
    <line _ngcontent-serverApp-c47="" fill="none" stroke="black" stroke-width="13.8757" x1="3600" y1="2574" x2="4602" y2="2571"></line>
    <path _ngcontent-serverApp-c47="" fill="none" stroke="black" stroke-width="13.8757" d="M3580 2598c6,53 344,-1 516,-2 175,0 464,48 525,-1"></path>
    <line _ngcontent-serverApp-c47="" fill="none" stroke="black" stroke-width="13.8757" x1="3013" y1="4566" x2="3055" y2="4530"></line>
    <line _ngcontent-serverApp-c47="" fill="none" stroke="black" stroke-width="13.8757" x1="5146" y1="4535" x2="5212" y2="4588"></line>
    <path _ngcontent-serverApp-c47="" fill="none" stroke="#373435" stroke-width="13.8757" d="M3055 4530c113,-670 199,-1333 401,-1880l108 -36 3 -3 -105 34c-276,84 -438,255 -575,444l10 133c108,-203 240,-345 448,-425 -144,493 -253,1123 -332,1769l42 -36z"></path>
    <path _ngcontent-serverApp-c47="" fill="none" stroke="#373435" stroke-width="13.8757" d="M4745 2650c237,640 352,1266 401,1885l66 53 -12 -22c-79,-646 -187,-1276 -332,-1769 208,80 340,222 449,425l9 -133c-137,-189 -299,-360 -575,-444l-19 -43 13 48z"></path>
    <path _ngcontent-serverApp-c47="" fill="none" stroke="black" stroke-width="13.8757" d="M5348 9190c-174,522 -708,470 -1190,501 0,2 0,5 0,7 -15,-1 -30,-3 -46,-4 -15,1 -31,3 -46,4 0,-2 0,-5 0,-7 -463,-30 -973,17 -1167,-441 12,-32 -1,-72 11,-104 9,-23 39,-38 51,-61 0,0 0,0 0,0 -27,0 242,271 298,244 582,103 1159,103 1728,-16 0,0 0,0 0,0 120,-38 209,-138 301,-233 7,12 33,25 39,36 13,25 8,49 21,74z"></path>
    <path _ngcontent-serverApp-c47="" fill="none" stroke="black" stroke-width="13.8757" d="M5284 4716c-98,273 -185,618 -265,1010 -39,548 -25,1122 10,1707 86,76 171,153 257,229 -1,-982 -1,-1964 -2,-2946z"></path>
    <path _ngcontent-serverApp-c47="" fill="none" stroke="black" stroke-width="13.8757" d="M4996 6580c4,280 16,565 33,853 86,76 171,153 257,229l-1 -1180 -289 98z"></path>
    <path _ngcontent-serverApp-c47="" fill="none" stroke="black" stroke-width="13.8757" d="M5168 5087c-53,193 -102,408 -149,639 -17,230 -24,465 -24,703l290 -166 0 0 -1 -1229 -116 53z"></path>
    <polygon _ngcontent-serverApp-c47="" fill="none" stroke="black" stroke-width="13.8757" points="4995,6463 5284,6297 5285,6443 4995,6538 "></polygon>
    <path _ngcontent-serverApp-c47="" fill="none" stroke="black" stroke-width="13.8757" d="M5286 7662c-17,272 -34,544 -50,816 -69,30 -138,-527 -207,-1045 86,76 171,153 257,229z"></path>
    <line _ngcontent-serverApp-c47="" fill="none" stroke="black" stroke-width="13.8757" x1="5035" y1="7480" x2="5283" y2="7707"></line>
    <line _ngcontent-serverApp-c47="" fill="none" stroke="black" stroke-width="13.8757" x1="5042" y1="7534" x2="5279" y2="7776"></line>
    <path _ngcontent-serverApp-c47="" fill="none" stroke="black" stroke-width="13.8757" d="M5285 6370l180 -49 -3 -1674 -11 -9 -51 46 -116 32c0,0 0,1654 1,1654z"></path>
    <path _ngcontent-serverApp-c47="" fill="none" stroke="black" stroke-width="13.8757" d="M5465 6321c0,403 1,805 1,1207 11,44 23,88 34,131 -73,56 -59,151 -97,169 -37,17 -79,2 -125,-36 3,-44 5,-87 8,-130 0,-393 -1,-786 -1,-1180 0,-13 0,-26 0,-39 0,-25 0,-49 0,-73 60,-16 120,-33 180,-49z"></path>
    <line _ngcontent-serverApp-c47="" fill="none" stroke="black" stroke-width="13.8757" x1="5396" y1="4687" x2="5440" y2="7752"></line>
    <path _ngcontent-serverApp-c47="" fill="none" stroke="black" stroke-width="13.8757" d="M2930 4716c98,273 185,618 265,1010 39,548 24,1122 -11,1707 -85,76 -171,153 -256,229 0,-982 1,-1964 2,-2946z"></path>
    <path _ngcontent-serverApp-c47="" fill="none" stroke="black" stroke-width="13.8757" d="M3217 6580c-3,280 -15,565 -33,853 -85,76 -171,153 -256,229l0 -1180 289 98z"></path>
    <path _ngcontent-serverApp-c47="" fill="none" stroke="black" stroke-width="13.8757" d="M3045 5087c53,193 103,408 150,639 16,230 23,465 23,703l-290 -166 0 0 1 -1229 116 53z"></path>
    <polygon _ngcontent-serverApp-c47="" fill="none" stroke="black" stroke-width="13.8757" points="3218,6463 2929,6297 2928,6443 3218,6538 "></polygon>
    <path _ngcontent-serverApp-c47="" fill="none" stroke="black" stroke-width="13.8757" d="M2928 7662c16,272 33,544 50,816 69,30 137,-527 206,-1045 -85,76 -171,153 -256,229z"></path>
    <line _ngcontent-serverApp-c47="" fill="none" stroke="black" stroke-width="13.8757" x1="3178" y1="7480" x2="2930" y2="7707"></line>
    <line _ngcontent-serverApp-c47="" fill="none" stroke="black" stroke-width="13.8757" x1="3171" y1="7534" x2="2935" y2="7776"></line>
    <path _ngcontent-serverApp-c47="" fill="none" stroke="black" stroke-width="13.8757" d="M2929 6370l-180 -49 2 -1674 11 -9 51 46 117 32c0,0 -1,1654 -1,1654z"></path>
    <path _ngcontent-serverApp-c47="" fill="none" stroke="black" stroke-width="13.8757" d="M2749 6321c-1,403 -1,805 -2,1207 -11,44 -22,88 -33,131 73,56 59,151 97,169 37,17 79,2 125,-36 -3,-44 -6,-87 -8,-130 0,-393 0,-786 0,-1180 0,-13 0,-26 0,-39 1,-25 1,-49 1,-73 -60,-16 -120,-33 -180,-49z"></path>
    <line _ngcontent-serverApp-c47="" fill="none" stroke="black" stroke-width="13.8757" x1="2818" y1="4687" x2="2773" y2="7752"></line>
    <path _ngcontent-serverApp-c47="" stroke="black" stroke-width="13.8757" d="M5284 5021c-43,-34 -9,-67 17,-100 111,53 216,111 275,203 -4,37 31,84 -3,96 -87,-67 -190,-100 -289,-138 0,-20 0,-40 0,-61z" style="fill: rgb(252, 201, 0);"></path>
    <path _ngcontent-serverApp-c47="" stroke="black" stroke-width="13.8757" d="M2929 5021c43,-34 10,-67 -17,-100 -111,53 -216,111 -274,203 3,37 -32,84 3,96 86,-67 190,-100 288,-138 0,-20 0,-40 0,-61z" style="fill: rgb(252, 201, 0);"></path>
    <path _ngcontent-serverApp-c47="" stroke="black" stroke-width="13.8757" d="M3100 4836c-34,-94 -10,-165 70,-214 552,-213 1195,-183 1900,14 60,28 82,99 60,218 -46,184 -92,368 -138,552 -11,78 -52,100 -115,78 -512,-120 -1033,-129 -1566,8 -61,10 -74,-48 -89,-107 -41,-183 -81,-366 -122,-549z" style="fill: rgb(252, 201, 0);"></path>
    <path _ngcontent-serverApp-c47="" stroke="black" stroke-width="13.8757" d="M3265 5574c526,-158 1084,-183 1686,-21 -58,712 -53,1448 0,2201 -538,123 -1092,131 -1665,11 67,-718 78,-1446 -21,-2191z" style="fill: rgb(252, 201, 0);"></path>
    <path _ngcontent-serverApp-c47="" fill="none" stroke="black" stroke-width="13.8757" d="M2844 7835c0,0 41,745 -59,907"></path>
    <path _ngcontent-serverApp-c47="" fill="none" stroke="#373435" stroke-width="13.8757" d="M2785 8742c100,-162 59,-907 59,-907 -12,0 -23,-2 -33,-7 -36,-17 -26,-103 -86,-159l-2 7 20 954 42 112z"></path>
    <path _ngcontent-serverApp-c47="" fill="none" stroke="black" stroke-width="13.8757" d="M5415 7817c0,0 -88,780 36,893"></path>
    <path _ngcontent-serverApp-c47="" fill="none" stroke="#373435" stroke-width="13.8757" d="M5415 7817c0,0 -88,780 36,893l30 -80 21 -954 -4 -15c-61,48 -59,125 -83,156z"></path>
    <path _ngcontent-serverApp-c47="" stroke="black" stroke-width="13.8757" d="M3330 8025c7,-99 43,-141 126,-111 139,11 277,22 415,33 8,-10 16,-19 24,-29 147,0 295,-1 442,-1 10,8 19,16 29,25 154,-14 309,-28 463,-42 36,-10 66,-5 81,34 18,238 36,477 54,715 6,52 -4,86 -33,99 -265,102 -561,144 -851,143 -241,-1 -487,-40 -739,-124 -53,-14 -70,-43 -60,-84 16,-219 33,-439 49,-658z" style="fill: rgb(252, 201, 0);"></path>
    <line _ngcontent-serverApp-c47="" fill="none" stroke="black" stroke-width="13.8757" x1="5028" y1="8782" x2="4951" y2="7754"></line>
    <line _ngcontent-serverApp-c47="" fill="none" stroke="black" stroke-width="13.8757" x1="3286" y1="7765" x2="3217" y2="8772"></line>
    <path _ngcontent-serverApp-c47="" fill="none" stroke="black" stroke-width="13.8757" d="M2852 8250c37,277 74,553 111,830 -9,25 -44,41 -53,66 -12,32 1,73 -11,104"></path>
    <path _ngcontent-serverApp-c47="" fill="none" stroke="#373435" stroke-width="13.8757" d="M2963 9080l-111 -830c-3,200 -19,414 -67,492l18 48 73 400c7,21 15,41 23,60 12,-31 -1,-72 11,-104 9,-25 44,-41 53,-66z"></path>
    <path _ngcontent-serverApp-c47="" fill="none" stroke="black" stroke-width="13.8757" d="M5387 8208c-33,291 -66,582 -99,872 7,12 33,25 39,36 13,25 8,49 21,74"></path>
    <path _ngcontent-serverApp-c47="" fill="none" stroke="#373435" stroke-width="13.8757" d="M5387 8208l-99 872c7,12 33,25 39,36 13,25 8,49 21,74l73 -400 30 -80c-63,-58 -71,-289 -64,-502z"></path>
    <path _ngcontent-serverApp-c47="" fill="none" stroke="black" stroke-width="13.8757" d="M4937 9462c11,-24 255,-63 357,-375"></path>
    <path _ngcontent-serverApp-c47="" fill="none" stroke="black" stroke-width="13.8757" d="M3297 9457c0,-1 -283,-36 -336,-372"></path>
    <path _ngcontent-serverApp-c47="" fill="none" stroke="black" stroke-width="13.8757" d="M2918 9133c-1,0 109,399 432,396"></path>
    <path _ngcontent-serverApp-c47="" fill="none" stroke="black" stroke-width="13.8757" d="M4885 9533c16,-16 316,-36 452,-380"></path>
    <path _ngcontent-serverApp-c47="" fill="none" stroke="#373435" stroke-width="13.8757" d="M3259 9329c-50,24 -266,-186 -296,-234 57,326 334,361 334,362 -29,-49 -39,-91 -38,-128z"></path>
    <path _ngcontent-serverApp-c47="" fill="none" stroke="#373435" stroke-width="13.8757" d="M3297 9457c0,-1 -277,-36 -334,-362 -1,-3 -2,-6 -2,-10 -1,1 -1,2 -2,3 -10,16 -29,29 -41,45 -1,0 109,399 432,396 -22,-26 -39,-50 -53,-72z"></path>
    <path _ngcontent-serverApp-c47="" fill="none" stroke="#373435" stroke-width="13.8757" d="M2963 9095c-2,-3 -3,-5 -4,-7 -13,21 -41,36 -49,58 -12,32 1,72 -11,104 194,458 704,411 1167,441l0 7c15,-1 31,-3 46,-4 16,1 31,3 46,4l0 -7c482,-31 1016,21 1190,-501 -7,-12 -9,-25 -11,-37 -135,341 -431,364 -452,380 -3,3 -6,5 -9,8 -526,88 -1033,89 -1517,-3 -27,-29 -47,-56 -62,-81 0,-1 -277,-36 -334,-362z"></path>
    <path _ngcontent-serverApp-c47="" fill="none" stroke="#373435" stroke-width="13.8757" d="M5294 9087c-101,310 -343,350 -356,375 -14,28 -31,53 -53,71 21,-16 317,-39 452,-380 -1,-12 -3,-24 -10,-37 -5,-9 -23,-19 -33,-29z"></path>
    <path _ngcontent-serverApp-c47="" fill="none" stroke="#373435" stroke-width="13.8757" d="M4938 9462c13,-25 255,-65 356,-375 -2,-2 -4,-5 -6,-7 -92,95 -181,195 -301,233 0,0 0,0 0,0 -3,0 -5,1 -7,1 -9,56 -22,106 -42,148z"></path>
    <line _ngcontent-serverApp-c47="" fill="none" stroke="black" stroke-width="13.8757" x1="4738" y1="1270" x2="5330" y2="1263"></line>
    <line _ngcontent-serverApp-c47="" fill="none" stroke="black" stroke-width="13.8757" x1="4661" y1="1494" x2="5332" y2="1494"></line>
    <line _ngcontent-serverApp-c47="" fill="none" stroke="black" stroke-width="13.8757" x1="2895" y1="1271" x2="3490" y2="1263"></line>
    <line _ngcontent-serverApp-c47="" fill="none" stroke="black" stroke-width="13.8757" x1="2898" y1="1490" x2="3577" y2="1494"></line>
    <g _ngcontent-serverApp-c47="">
      <path _ngcontent-serverApp-c47="" stroke="#373435" stroke-width="6.93981" d="M1595 8644c180,-321 303,-631 381,-933l0 -1c-78,303 -201,613 -381,934zm-463 -770c-96,-130 -251,-241 -482,-277l-36 -25 0 106c278,53 489,298 489,592 0,199 -97,376 -246,486l15 120 0 1 48 384c7,42 21,78 64,90l179 -13 1 0c-1,-1 -1,-1 -1,-2 90,-16 174,-42 253,-75 120,-92 199,-298 199,-298 153,-320 272,-620 348,-895l35 -114c21,-91 40,-181 56,-272l-78 28c4,-17 9,-34 13,-51l-481 275 1 48c-46,30 -73,44 -110,35 -14,-3 -30,-11 -50,-22 -70,-42 -143,-81 -217,-121zm465 57l19 472c142,-275 214,-471 251,-629l-270 157zm-88 51l0 0z" style="fill: rgb(252, 201, 0);"></path>
      <path _ngcontent-serverApp-c47="" stroke="#373435" stroke-width="13.8757" d="M618 4770l0 92c204,-36 438,-18 673,4 53,2 99,17 133,50l50 -94 -15 -140c-55,-534 -121,-1053 -229,-1516 -24,-100 -34,-144 -83,-206l-18 467c-154,-159 -435,-190 -596,-236 -4,-1 -7,-2 -11,-4l-2 284 0 23c95,3 185,27 264,69 192,100 323,302 323,533 0,296 -213,541 -493,593l4 0 0 81z" style="fill: rgb(252, 201, 0);"></path>
      <path _ngcontent-serverApp-c47="" fill="none" stroke="#373435" stroke-width="13.8757" d="M516 3471c398,-27 659,130 717,561 4,87 -8,181 -37,280 -111,382 -377,424 -582,458l0 92c205,-36 438,-18 673,4 53,2 99,17 133,50l50 -94 -14 -140c-56,-534 -122,-1053 -230,-1516 -24,-100 -34,-144 -83,-206l-18 467c-153,-159 -434,-190 -596,-236 -4,-1 -7,-2 -11,-4l-2 284zm718 566l0 0 0 0 0 0zm0 -2c-6,-45 -11,-89 -17,-132 1,8 2,16 3,23 7,33 11,68 13,104l1 5zm-74 -459c-1,-6 -2,-12 -3,-18m77 478l0 0 0 0 0 1 0 0 0 0 0 0 0 0"></path>
      <path _ngcontent-serverApp-c47="" stroke="black" stroke-width="13.8757" d="M1465 6452l2 91c-163,-46 -325,-71 -486,-78 -181,-8 -361,7 -539,40 -4,-530 -8,-1060 -12,-1590 241,-101 548,-77 857,-49 53,2 99,17 133,50 204,180 423,558 529,843 68,288 117,579 132,876l-616 -183zm-45 -1536l2 76 0 -32 -2 -44z" style="fill: rgb(252, 201, 0);"></path>
      <path _ngcontent-serverApp-c47="" stroke="black" stroke-width="13.8757" d="M1506 7884l0 -6 0 -14 0 14 -39 -1335 42 1439 0 0c-64,41 -92,53 -160,13 -70,-42 -143,-81 -217,-121 -96,-130 -251,-241 -482,-277 -36,-25 -70,-51 -103,-78 -141,-107 -80,-661 -105,-1014 178,-33 358,-48 539,-40 161,7 323,32 486,78l-2 -91 4 91 614 142c12,317 -14,641 -94,974l-481 275 -2 -50z" style="fill: rgb(252, 201, 0);"></path>
      <path _ngcontent-serverApp-c47="" fill="none" stroke="black" stroke-width="13.8757" d="M427 2704c-4,-26 -8,-53 -12,-79 215,-33 427,2 635,112 133,71 150,133 204,275 131,344 180,831 215,1252 9,114 8,235 18,344 -14,23 -18,50 -31,74 -56,-534 -122,-1053 -230,-1516 -30,-127 -39,-163 -133,-263 -165,-175 -389,-237 -666,-199z"></path>
      <path _ngcontent-serverApp-c47="" fill="none" stroke="black" stroke-width="13.8757" d="M425 2692l0 0 0 -1 0 -1 0 0 0 -1 0 0 0 -1 0 -1 -1 -2 0 0 0 0 0 -1 0 0 0 -1 0 0 0 -1 0 0 0 -1 -1 -1 0 0 0 -1 0 0 0 -1 0 0 0 -1 0 0 0 -1 0 -1 0 0 -1 -1 0 0 0 -1 0 0 0 -1 0 0 0 -1 0 0 0 -1 0 -1 0 0 -1 -1 0 0 0 -1 0 0 0 -1 0 0 0 -1 0 -1 0 -1 0 0 0 -1 -1 0 0 -1 0 0 0 -1 0 -1 0 0 0 -1 0 0 0 -1 0 0 0 -1 0 0 -1 -1 0 -1 0 0 0 -1 0 0 0 -1 0 0 0 -1 0 0 0 -1 0 0 -1 -1 0 -1 0 0 0 -1 0 0 0 -1 0 0 0 -1 0 0 0 -1 0 -1 -1 0 0 -1 0 0 0 -1 0 -1 0 0 0 -1 0 -1 0 0 0 -1 0 0 -1 -1 0 0 0 -1 0 0 0 -1 0 -1 0 0 0 -1 0 0 0 -1 0 0 -1 -1 0 0 0 -1 0 0 0 -1 0 -1 0 0 0 -1 0 0 0 -1c215,-33 427,2 635,112 42,23 73,45 97,68 -4,12 -8,20 -13,24 -36,30 -110,-47 -149,-70 -180,-107 -361,-107 -560,-67z"></path>
      <path _ngcontent-serverApp-c47="" fill="none" stroke="black" stroke-width="13.8757" d="M1456 4682c4,46 9,93 14,140 -16,31 -33,63 -50,94 -34,-33 -80,-48 -133,-50 -15,-550 -58,-1050 -162,-1439 -153,-159 -434,-190 -596,-236 -126,-35 -79,-371 -102,-487 277,-38 501,24 666,199 94,100 103,136 133,263 108,463 174,982 230,1516z"></path>
      <path _ngcontent-serverApp-c47="" fill="none" stroke="black" stroke-width="13.8757" d="M1125 3427c-51,-52 -115,-90 -184,-120l0 0 -39 -545c70,33 134,80 191,141 20,21 36,40 50,57l-18 467z"></path>
      <path _ngcontent-serverApp-c47="" fill="none" stroke="black" stroke-width="13.8757" d="M1487 4608c208,325 397,667 561,1031 184,792 170,1587 4,2384 -18,-23 -36,-46 -54,-69 175,-756 197,-1501 -10,-2229 -139,-326 -318,-622 -518,-903 -5,-47 -10,-94 -14,-140 10,-25 20,-50 31,-74z"></path>
      <path _ngcontent-serverApp-c47="" fill="none" stroke="black" stroke-width="13.8757" d="M1487 4608c197,308 377,630 534,973l-56 93 0 -1c-135,-305 -306,-585 -495,-851 -5,-47 -10,-94 -14,-140 10,-25 20,-50 31,-74z"></path>
      <path _ngcontent-serverApp-c47="" fill="none" stroke="black" stroke-width="13.8757" d="M1777 5097c97,175 187,356 271,542l-60 86c-8,-18 -15,-35 -23,-52l0 1 56 -93c-76,-166 -157,-327 -244,-484z"></path>
      <path _ngcontent-serverApp-c47="" fill="none" stroke="black" stroke-width="13.8757" d="M1727 5006c17,30 34,60 50,90 -16,-30 -33,-60 -50,-90z"></path>
      <path _ngcontent-serverApp-c47="" fill="none" stroke="black" stroke-width="13.8757" d="M1626 4832c4,8 9,16 14,24"></path>
      <polygon _ngcontent-serverApp-c47="" fill="none" stroke="black" stroke-width="13.8757" points="2052,8023 2013,8122 1963,8068 1998,7954 "></polygon>
      <path _ngcontent-serverApp-c47="" fill="none" stroke="black" stroke-width="13.8757" d="M2013 8122c-91,329 -213,648 -375,955 -27,-25 -38,-61 -23,-114 153,-320 272,-620 348,-895 16,18 33,36 50,54z"></path>
      <path _ngcontent-serverApp-c47="" fill="none" stroke="black" stroke-width="13.8757" d="M1638 9077c-1,176 -9,357 -41,552 -14,-32 -29,-64 -43,-96 36,-173 44,-344 55,-514 2,24 13,43 29,58zm-26 -101l0 0 0 0 0 0z"></path>
      <path _ngcontent-serverApp-c47="" fill="none" stroke="black" stroke-width="13.8757" d="M1597 9629c-61,71 -124,107 -188,125 -3,-35 -6,-70 -8,-105 69,-36 119,-75 153,-116 14,32 29,64 43,96z"></path>
      <path _ngcontent-serverApp-c47="" fill="none" stroke="black" stroke-width="13.8757" d="M1420 4916c204,180 423,558 529,843 213,902 233,1839 -354,2885 -22,2 -44,3 -66,4 -36,-1244 -73,-2488 -109,-3732z"></path>
      <path _ngcontent-serverApp-c47="" fill="white" stroke="black" stroke-width="13.8757" d="M1976 7711c-78,302 -201,612 -381,933 -22,2 -44,3 -66,4l-20 -666 467 -271z"></path>
      <path _ngcontent-serverApp-c47="" fill="none" stroke="black" stroke-width="13.8757" d="M1422 4960c444,560 592,943 611,1634 -194,-62 -374,-120 -569,-181 -12,-421 -30,-1033 -42,-1453z"></path>
      <path _ngcontent-serverApp-c47="" fill="none" stroke="black" stroke-width="13.8757" d="M2047 6707c-2,304 -19,629 -94,928 -149,83 -298,166 -447,249 -12,-422 -19,-886 -32,-1308l573 131z"></path>
      <polygon _ngcontent-serverApp-c47="" fill="none" stroke="black" stroke-width="13.8757" points="2081,6635 1465,6452 1469,6543 2083,6685 "></polygon>
      <line _ngcontent-serverApp-c47="" fill="none" stroke="black" stroke-width="13.8757" x1="1989" y1="7659" x2="1508" y2="7934"></line>
      <path _ngcontent-serverApp-c47="" fill="none" stroke="black" stroke-width="13.8757" d="M1867 7774c-37,158 -109,354 -251,629 -6,-157 -13,-315 -19,-472 90,-52 180,-104 270,-157z"></path>
      <path _ngcontent-serverApp-c47="" fill="none" stroke="black" stroke-width="13.8757" d="M1467 6543c-163,-46 -325,-71 -486,-78 -181,-8 -361,7 -539,40 -4,-530 -8,-1060 -12,-1590 241,-101 548,-77 857,-49 53,2 99,17 133,50 16,542 32,1084 47,1627z"></path>
      <path _ngcontent-serverApp-c47="" fill="none" stroke="black" stroke-width="13.8757" d="M1509 7982c-64,41 -92,53 -160,13 -70,-42 -143,-81 -217,-121 -96,-130 -251,-241 -482,-277 -36,-25 -70,-51 -103,-78 -141,-107 -80,-661 -105,-1014 178,-33 358,-48 539,-40 161,7 323,32 486,78l42 1439 0 0z"></path>
      <path _ngcontent-serverApp-c47="" fill="none" stroke="black" stroke-width="13.8757" d="M415 2625c-39,39 -65,125 -84,241 -3,83 -6,165 -9,248 44,-10 88,-21 132,-31 0,0 0,0 0,0 -28,-119 -11,-300 -27,-379 -4,-26 -8,-53 -12,-79z"></path>
      <path _ngcontent-serverApp-c47="" fill="none" stroke="black" stroke-width="13.8757" d="M322 3114l-24 380 186 0c5,0 11,0 16,0 6,0 11,0 16,0l2 -307 0 0c-33,-15 -53,-54 -64,-104l0 0c-44,10 -88,21 -132,31z"></path>
      <path _ngcontent-serverApp-c47="" fill="none" stroke="black" stroke-width="13.8757" d="M1103 4096c0,333 -270,603 -603,603l-202 0 0 -99 202 0c279,0 504,-225 504,-504 0,-278 -225,-503 -504,-503 -4,0 -9,0 -13,0l-189 0 0 -99 186 0c5,0 11,0 16,0 333,0 603,270 603,602z"></path>
      <circle _ngcontent-serverApp-c47="" fill="none" stroke="black" stroke-width="13.8757" transform="matrix(2.80054E-014 1.05678 -1.0393 2.75058E-014 502.41 4096.45)" r="477"></circle>
      <circle _ngcontent-serverApp-c47="" fill="none" stroke="black" stroke-width="13.8757" transform="matrix(2.08861E-014 0.785915 -0.77292 2.04697E-014 502.411 4096.45)" r="477"></circle>
      <circle _ngcontent-serverApp-c47="" fill="none" stroke="black" stroke-width="13.8757" transform="matrix(5.16948E-015 0.195362 -0.192132 5.08968E-015 502.412 4096.45)" r="477"></circle>
      <path _ngcontent-serverApp-c47="" fill="none" stroke="black" stroke-width="13.8757" d="M869 4080l0 33 -276 0c1,-5 1,-11 1,-17 0,-5 0,-11 -1,-16l276 0zm-457 33l-278 0 0 -33 278 0c-1,5 -1,11 -1,16 0,6 0,12 1,17z"></path>
      <path _ngcontent-serverApp-c47="" fill="none" stroke="black" stroke-width="13.8757" d="M518 4464l-33 0 0 -277c6,1 11,2 17,2 5,0 11,-1 16,-2l0 277zm-33 -457l0 -278 33 0 0 278c-5,-1 -11,-1 -16,-1 -6,0 -11,0 -17,1z"></path>
      <path _ngcontent-serverApp-c47="" fill="none" stroke="black" stroke-width="13.8757" d="M253 4368l-23 -23 196 -196c3,5 6,9 10,13 4,4 9,7 13,10l-196 196zm300 -346l197 -197 23 23 -196 197c-4,-5 -7,-9 -11,-13 -4,-4 -8,-7 -13,-10z"></path>
      <path _ngcontent-serverApp-c47="" fill="none" stroke="black" stroke-width="13.8757" d="M230 3848l23 -23 196 196c-4,3 -9,6 -13,10 -4,4 -7,8 -10,13l-196 -196zm347 300l196 197 -23 23 -197 -197c5,-3 9,-6 13,-10 4,-4 7,-8 11,-13z"></path>
      <polyline _ngcontent-serverApp-c47="" fill="none" stroke="black" stroke-width="13.8757" points="1287,4866 1374,6519 1399,8017 "></polyline>
      <path _ngcontent-serverApp-c47="" fill="none" stroke="black" stroke-width="13.8757" d="M1554 9533c-32,-118 -83,-198 -138,-272 2,155 3,308 -15,388 69,-36 119,-75 153,-116z"></path>
      <line _ngcontent-serverApp-c47="" fill="none" stroke="black" stroke-width="13.8757" x1="1399" y1="8017" x2="1416" y2="9261"></line>
      <path _ngcontent-serverApp-c47="" fill="none" stroke="black" stroke-width="13.8757" d="M1416 9261c-79,33 -163,59 -253,75 12,126 8,252 -10,377 87,-8 169,-30 248,-63 0,-1 0,-1 0,-2 0,0 0,1 0,1 18,-80 17,-233 15,-388z"></path>
      <path _ngcontent-serverApp-c47="" fill="none" stroke="black" stroke-width="13.8757" d="M516 3471c534,-36 826,339 680,841 -111,382 -377,424 -582,458l0 1709"></path>
      <path _ngcontent-serverApp-c47="" fill="none" stroke="#373435" stroke-width="13.8757" d="M1196 4312c-111,382 -377,424 -582,458l0 92c205,-36 438,-18 673,4 -8,-294 -24,-573 -53,-829 0,-2 -1,-4 -1,-6 4,87 -8,182 -37,281z"></path>
      <path _ngcontent-serverApp-c47="" fill="none" stroke="black" stroke-width="13.8757" d="M1103 8270c0,333 -270,602 -603,602l-136 0 0 -98 136 0c279,0 504,-226 504,-504 0,-278 -225,-504 -504,-504 -4,0 -9,0 -13,0l-154 0 0 -98 151 0c5,0 11,0 16,0 333,0 603,269 603,602z"></path>
      <circle _ngcontent-serverApp-c47="" fill="none" stroke="black" stroke-width="13.8757" transform="matrix(2.80054E-014 1.05678 -1.0393 2.75058E-014 502.41 8269.95)" r="477"></circle>
      <circle _ngcontent-serverApp-c47="" fill="none" stroke="black" stroke-width="13.8757" transform="matrix(2.08861E-014 0.785915 -0.77292 2.04697E-014 502.411 8269.95)" r="477"></circle>
      <circle _ngcontent-serverApp-c47="" fill="none" stroke="black" stroke-width="13.8757" transform="matrix(5.16948E-015 0.195362 -0.192132 5.08968E-015 502.412 8269.95)" r="477"></circle>
      <path _ngcontent-serverApp-c47="" fill="none" stroke="black" stroke-width="13.8757" d="M869 8254l0 32 -276 0c1,-5 1,-10 1,-16 0,-6 0,-11 -1,-16l276 0zm-457 32l-278 0 0 -32 278 0c-1,5 -1,10 -1,16 0,6 0,11 1,16z"></path>
      <path _ngcontent-serverApp-c47="" fill="none" stroke="black" stroke-width="13.8757" d="M518 8638l-33 0 0 -277c6,1 11,1 17,1 5,0 11,0 16,-1l0 277zm-33 -458l0 -278 33 0 0 278c-5,0 -11,-1 -16,-1 -6,0 -11,1 -17,1z"></path>
      <path _ngcontent-serverApp-c47="" fill="none" stroke="black" stroke-width="13.8757" d="M253 8542l-23 -24 196 -195c3,4 6,8 10,12 4,4 9,8 13,11l-196 196zm300 -347l197 -197 23 23 -196 197c-4,-4 -7,-8 -11,-12 -4,-4 -8,-8 -13,-11z"></path>
      <path _ngcontent-serverApp-c47="" fill="none" stroke="black" stroke-width="13.8757" d="M230 8021l23 -23 196 196c-4,3 -9,7 -13,11 -4,4 -7,8 -10,12l-196 -196zm347 301l196 196 -23 24 -197 -197c5,-3 9,-7 13,-11 4,-4 7,-8 11,-12z"></path>
      <line _ngcontent-serverApp-c47="" fill="none" stroke="black" stroke-width="13.8757" x1="614" y1="6479" x2="614" y2="7572"></line>
      <path _ngcontent-serverApp-c47="" fill="none" stroke="black" stroke-width="13.8757" d="M1153 9713c-66,3 -121,24 -146,96 -76,66 -215,47 -324,39 -22,-187 -62,-173 -202,-305 -39,-223 -78,-447 -117,-671 45,0 91,0 136,0 134,0 257,-43 357,-116 0,0 0,0 0,0 21,168 42,337 63,505 7,42 21,78 64,90 60,-5 120,-9 179,-13 0,0 0,0 1,0 11,125 7,250 -11,375z"></path>
      <line _ngcontent-serverApp-c47="" fill="none" stroke="black" stroke-width="13.8757" x1="752" y1="2711" x2="780" y2="3253"></line>
      <line _ngcontent-serverApp-c47="" fill="none" stroke="black" stroke-width="13.8757" x1="650" y1="2696" x2="677" y2="3227"></line>
      <path _ngcontent-serverApp-c47="" fill="none" stroke="black" stroke-width="13.8757" d="M780 3253c1,0 0,310 0,310"></path>
      <line _ngcontent-serverApp-c47="" fill="none" stroke="black" stroke-width="13.8757" x1="298" y1="4699" x2="333" y2="7668"></line>
      <path _ngcontent-serverApp-c47="" fill="none" stroke="#373435" stroke-width="13.8757" d="M614 7571c-23,-17 -45,-35 -67,-52 -141,-107 -80,-661 -105,-1014l-12 -1590c57,-25 119,-42 184,-53l0 -92c205,-34 471,-76 582,-458 29,-99 41,-194 37,-281 -20,-148 -64,-263 -129,-350 -78,-93 -188,-160 -324,-191 0,42 0,73 0,73 192,100 323,302 323,533 0,333 -270,603 -603,603l-202 0 34 2885 282 -13z"></path>
      <path _ngcontent-serverApp-c47="" fill="none" stroke="#373435" stroke-width="13.8757" d="M650 7597c-12,-9 -24,-18 -36,-26l-282 13 282 -12 36 25 0 0z"></path>
      <path _ngcontent-serverApp-c47="" fill="none" stroke="#373435" stroke-width="13.8757" d="M872 8876l48 385c7,42 21,78 64,90l179 -13 1 0c-1,-1 -1,-1 -1,-2 90,-16 174,-42 253,-75l-17 -1244c-14,-3 -30,-11 -50,-22 -70,-42 -143,-81 -217,-121 70,95 109,200 121,295 28,205 -32,543 -381,708l0 -1z"></path>
      <path _ngcontent-serverApp-c47="" fill="none" stroke="#373435" stroke-width="13.8757" d="M484 7668l16 0c-5,0 -11,0 -16,0z"></path>
      <path _ngcontent-serverApp-c47="" fill="none" stroke="black" stroke-width="13.8757" d="M683 9848c-214,-75 -108,-64 -166,-113 -57,-48 -68,1 -63,-85 2,-69 6,-138 10,-206l0 0 17 99c140,132 180,118 202,305z"></path>
      <path _ngcontent-serverApp-c47="" fill="none" stroke="black" stroke-width="13.8757" d="M1407 9732l-230 27 -29 30 -137 10c26,-64 79,-84 142,-86 87,-8 169,-30 248,-63l6 82z"></path>
      <line _ngcontent-serverApp-c47="" fill="none" stroke="black" stroke-width="13.8757" x1="1035" y1="2730" x2="1009" y2="2775"></line>
      <path _ngcontent-serverApp-c47="" fill="none" stroke="black" stroke-width="13.8757" d="M933 2684c-1,-1 -21,37 -21,37"></path>
      <line _ngcontent-serverApp-c47="" fill="none" stroke="black" stroke-width="13.8757" x1="834" y1="2650" x2="824" y2="2690"></line>
      <line _ngcontent-serverApp-c47="" fill="none" stroke="black" stroke-width="13.8757" x1="741" y1="2628" x2="741" y2="2673"></line>
      <path _ngcontent-serverApp-c47="" fill="none" stroke="black" stroke-width="13.8757" d="M659 2617c1,0 -5,50 -5,50"></path>
      <line _ngcontent-serverApp-c47="" fill="none" stroke="black" stroke-width="13.8757" x1="553" y1="2613" x2="553" y2="2672"></line>
      <path _ngcontent-serverApp-c47="" fill="none" stroke="#373435" stroke-width="6.93981" d="M1953 7635c75,-299 92,-624 94,-928l-573 -131c13,420 20,881 32,1302l-39 -1335 -2 -91 4 91 614 142c12,317 -14,641 -94,974l-481 275 -2 -50 447 -249z"></path>
      <path _ngcontent-serverApp-c47="" fill="none" stroke="#373435" stroke-width="6.93981" d="M2081 6635l-616 -183 -1 -39c195,61 375,119 569,181 -19,-691 -167,-1074 -611,-1634l-2 -44c204,180 423,558 529,843 68,288 117,579 132,876z"></path>
      <path _ngcontent-serverApp-c47="" fill="none" stroke="#373435" stroke-width="6.93981" d="M1470 4822l-50 94c-34,-33 -80,-48 -133,-50 -8,-294 -24,-573 -53,-829 -1,-2 -1,-5 -1,-7 -2,-36 -6,-71 -13,-104 -24,-180 -55,-348 -95,-499l18 -467c49,62 59,106 83,206 108,463 174,982 230,1516l14 140z"></path>
      <line _ngcontent-serverApp-c47="" fill="none" stroke="black" stroke-width="6.93981" x1="614" y1="4770" x2="299" y2="4774"></line>
      <path _ngcontent-serverApp-c47="" fill="none" stroke="#373435" stroke-width="6.93981" d="M780 3490c136,31 246,98 324,190 0,0 0,0 0,1 65,87 109,202 129,350 0,0 0,1 0,1 -58,-431 -319,-588 -717,-561 96,-7 185,0 264,19zm323 606c0,-231 -131,-433 -323,-533 -79,-42 -169,-66 -264,-69l0 -23c97,-7 185,-2 264,14 136,28 245,91 324,195 0,0 0,0 0,1 65,87 109,202 129,350l0 1c4,87 -8,181 -37,280 -111,382 -377,424 -582,458l0 -81 -4 0c280,-52 493,-297 493,-593z"></path>
      <line _ngcontent-serverApp-c47="" fill="none" stroke="black" stroke-width="6.93981" x1="2054" y1="7682" x2="1976" y2="7711"></line>
    </g>
    <g _ngcontent-serverApp-c47="">
      <path _ngcontent-serverApp-c47="" stroke="#373435" stroke-width="6.93981" d="M6575 8644c-180,-321 -302,-631 -380,-933l0 -1c78,303 200,613 380,934zm463 -770c96,-130 252,-241 482,-277l37 -25 0 106c-278,53 -489,298 -489,592 0,199 97,376 246,486l-15 120 0 1 -48 384c-7,42 -22,78 -65,90l-179 -13 0 0c0,-1 0,-1 0,-2 -89,-16 -173,-42 -253,-75 -119,-92 -198,-298 -198,-298 -153,-320 -273,-620 -348,-895l-35 -114c-21,-91 -40,-181 -57,-272l79 28c-5,-17 -9,-34 -13,-51l481 275 -2 48c46,30 74,44 110,35 15,-3 31,-11 50,-22 70,-42 144,-81 217,-121zm-464 57l-19 472c-143,-275 -214,-471 -251,-629l270 157zm87 51l0 0z" style="fill: rgb(252, 201, 0);"></path>
      <path _ngcontent-serverApp-c47="" stroke="#373435" stroke-width="13.8757" d="M7553 4770l0 92c-205,-36 -438,-18 -673,4 -54,2 -100,17 -133,50l-50 -94 14 -140c56,-534 122,-1053 230,-1516 23,-100 34,-144 83,-206l18 467c153,-159 434,-190 596,-236 4,-1 7,-2 11,-4l1 284 1 23c-95,3 -185,27 -264,69 -192,100 -323,302 -323,533 0,296 213,541 493,593l-4 0 0 81z" style="fill: rgb(252, 201, 0);"></path>
      <path _ngcontent-serverApp-c47="" fill="none" stroke="#373435" stroke-width="13.8757" d="M7654 3471c-398,-27 -659,130 -716,561 -4,87 8,181 36,280 112,382 378,424 583,458l0 92c-205,-36 -438,-18 -673,4 -54,2 -100,17 -134,50l-50 -94 15 -140c56,-534 122,-1053 230,-1516 23,-100 34,-144 83,-206l18 467c153,-159 434,-190 596,-236 3,-1 7,-2 10,-4l2 284zm-717 566l0 0 0 0 0 0zm0 -2c5,-45 11,-89 17,-132 -1,8 -2,16 -3,23 -7,33 -12,68 -13,104l-1 5zm73 -459c2,-6 3,-12 4,-18m-77 478l0 0 0 0 0 1 0 0 0 0 0 0 0 0"></path>
      <path _ngcontent-serverApp-c47="" stroke="black" stroke-width="13.8757" d="M6706 6452l-3 91c164,-46 326,-71 486,-78 182,-8 361,7 540,40 4,-530 8,-1060 12,-1590 -242,-101 -548,-77 -857,-49 -54,2 -100,17 -134,50 -203,180 -422,558 -528,843 -69,288 -117,579 -132,876l616 -183zm44 -1536l-2 76 1 -32 1 -44z" style="fill: rgb(252, 201, 0);"></path>
      <path _ngcontent-serverApp-c47="" stroke="black" stroke-width="13.8757" d="M6664 7884l0 -6 1 -14 -1 14 39 -1335 -42 1439 0 0c65,41 92,53 160,13 70,-42 144,-81 217,-121 96,-130 252,-241 482,-277 36,-25 71,-51 104,-78 141,-107 80,-661 105,-1014 -179,-33 -358,-48 -540,-40 -160,7 -322,32 -486,78l3 -91 -4 91 -614 142c-13,317 14,641 94,974l481 275 1 -50z" style="fill: rgb(252, 201, 0);"></path>
      <path _ngcontent-serverApp-c47="" fill="none" stroke="black" stroke-width="13.8757" d="M7744 2704c4,-26 8,-53 12,-79 -216,-33 -427,2 -635,112 -133,71 -151,133 -205,275 -131,344 -180,831 -214,1252 -10,114 -9,235 -18,344 14,23 17,50 31,74 56,-534 122,-1053 230,-1516 30,-127 39,-163 133,-263 164,-175 389,-237 666,-199z"></path>
      <path _ngcontent-serverApp-c47="" fill="none" stroke="black" stroke-width="13.8757" d="M7746 2692l0 0 0 -1 0 -1 0 0 0 -1 0 0 0 -1 0 -1 0 -2 0 0 0 0 1 -1 0 0 0 -1 0 0 0 -1 0 0 0 -1 0 -1 0 0 0 -1 0 0 1 -1 0 0 0 -1 0 0 0 -1 0 -1 0 0 0 -1 0 0 0 -1 0 0 1 -1 0 0 0 -1 0 0 0 -1 0 -1 0 0 0 -1 0 0 0 -1 0 0 1 -1 0 0 0 -1 0 -1 0 -1 0 0 0 -1 0 0 0 -1 0 0 0 -1 1 -1 0 0 0 -1 0 0 0 -1 0 0 0 -1 0 0 0 -1 0 -1 0 0 1 -1 0 0 0 -1 0 0 0 -1 0 0 0 -1 0 0 0 -1 0 -1 0 0 1 -1 0 0 0 -1 0 0 0 -1 0 0 0 -1 0 -1 0 0 0 -1 0 0 1 -1 0 -1 0 0 0 -1 0 -1 0 0 0 -1 0 0 0 -1 0 0 0 -1 0 0 1 -1 0 -1 0 0 0 -1 0 0 0 -1 0 0 0 -1 0 0 0 -1 0 0 1 -1 0 -1 0 0 0 -1 0 0 0 -1c-216,-33 -427,2 -635,112 -42,23 -73,45 -97,68 4,12 8,20 13,24 36,30 110,-47 149,-70 180,-107 360,-107 560,-67z"></path>
      <path _ngcontent-serverApp-c47="" fill="none" stroke="black" stroke-width="13.8757" d="M6715 4682c-5,46 -10,93 -15,140 17,31 34,63 50,94 34,-33 80,-48 134,-50 15,-550 58,-1050 162,-1439 153,-159 434,-190 596,-236 125,-35 78,-371 102,-487 -277,-38 -502,24 -666,199 -94,100 -103,136 -133,263 -108,463 -174,982 -230,1516z"></path>
      <path _ngcontent-serverApp-c47="" fill="none" stroke="black" stroke-width="13.8757" d="M7046 3427c50,-52 115,-90 184,-120l0 0 39 -545c-71,33 -135,80 -191,141 -21,21 -37,40 -50,57l18 467z"></path>
      <path _ngcontent-serverApp-c47="" fill="none" stroke="black" stroke-width="13.8757" d="M6684 4608c-208,325 -398,667 -561,1031 -184,792 -170,1587 -4,2384 18,-23 36,-46 54,-69 -176,-756 -198,-1501 10,-2229 138,-326 318,-622 517,-903 5,-47 10,-94 15,-140 -10,-25 -21,-50 -31,-74z"></path>
      <path _ngcontent-serverApp-c47="" fill="none" stroke="black" stroke-width="13.8757" d="M6684 4608c-197,308 -377,630 -535,973l56 93 0 -1c135,-305 307,-585 495,-851 5,-47 10,-94 15,-140 -10,-25 -21,-50 -31,-74z"></path>
      <path _ngcontent-serverApp-c47="" fill="none" stroke="black" stroke-width="13.8757" d="M6393 5097c-96,175 -187,356 -270,542l60 86c7,-18 15,-35 22,-52l0 1 -56 -93c77,-166 158,-327 244,-484z"></path>
      <path _ngcontent-serverApp-c47="" fill="none" stroke="black" stroke-width="13.8757" d="M6444 5006c-17,30 -34,60 -50,90 16,-30 33,-60 50,-90z"></path>
      <path _ngcontent-serverApp-c47="" fill="none" stroke="black" stroke-width="13.8757" d="M6545 4832c-5,8 -10,16 -14,24"></path>
      <polygon _ngcontent-serverApp-c47="" fill="none" stroke="black" stroke-width="13.8757" points="6119,8023 6158,8122 6208,8068 6173,7954 "></polygon>
      <path _ngcontent-serverApp-c47="" fill="none" stroke="black" stroke-width="13.8757" d="M6158 8122c90,329 212,648 375,955 26,-25 38,-61 23,-114 -153,-320 -273,-620 -348,-895 -17,18 -33,36 -50,54z"></path>
      <path _ngcontent-serverApp-c47="" fill="none" stroke="black" stroke-width="13.8757" d="M6533 9077c1,176 9,357 40,552 15,-32 30,-64 44,-96 -37,-173 -44,-344 -55,-514 -3,24 -13,43 -29,58zm26 -101l0 0 0 0 0 0z"></path>
      <path _ngcontent-serverApp-c47="" fill="none" stroke="black" stroke-width="13.8757" d="M6573 9629c62,71 125,107 189,125 3,-35 5,-70 8,-105 -70,-36 -119,-75 -153,-116 -14,32 -29,64 -44,96z"></path>
      <path _ngcontent-serverApp-c47="" fill="none" stroke="black" stroke-width="13.8757" d="M6750 4916c-203,180 -422,558 -528,843 -214,902 -233,1839 353,2885 23,2 45,3 67,4 36,-1244 72,-2488 108,-3732z"></path>
      <path _ngcontent-serverApp-c47="" fill="white" stroke="black" stroke-width="13.8757" d="M6195 7711c78,302 200,612 380,933 23,2 45,3 67,4l19 -666 -466 -271z"></path>
      <path _ngcontent-serverApp-c47="" fill="none" stroke="black" stroke-width="13.8757" d="M6749 4960c-444,560 -593,943 -612,1634 195,-62 375,-120 570,-181 12,-421 30,-1033 42,-1453z"></path>
      <path _ngcontent-serverApp-c47="" fill="none" stroke="black" stroke-width="13.8757" d="M6124 6707c2,304 19,629 93,928 149,83 298,166 447,249 12,-422 20,-886 32,-1308l-572 131z"></path>
      <polygon _ngcontent-serverApp-c47="" fill="none" stroke="black" stroke-width="13.8757" points="6090,6635 6706,6452 6702,6543 6088,6685 "></polygon>
      <line _ngcontent-serverApp-c47="" fill="none" stroke="black" stroke-width="13.8757" x1="6182" y1="7659" x2="6663" y2="7934"></line>
      <path _ngcontent-serverApp-c47="" fill="none" stroke="black" stroke-width="13.8757" d="M6304 7774c37,158 108,354 251,629 6,-157 12,-315 19,-472 -90,-52 -180,-104 -270,-157z"></path>
      <path _ngcontent-serverApp-c47="" fill="none" stroke="black" stroke-width="13.8757" d="M6703 6543c164,-46 326,-71 486,-78 182,-8 361,7 540,40 4,-530 8,-1060 12,-1590 -242,-101 -548,-77 -857,-49 -54,2 -100,17 -134,50 -15,542 -31,1084 -47,1627z"></path>
      <path _ngcontent-serverApp-c47="" fill="none" stroke="black" stroke-width="13.8757" d="M6661 7982c65,41 92,53 160,13 70,-42 144,-81 217,-121 96,-130 252,-241 482,-277 36,-25 71,-51 104,-78 141,-107 80,-661 105,-1014 -179,-33 -358,-48 -540,-40 -160,7 -322,32 -486,78l-42 1439 0 0z"></path>
      <path _ngcontent-serverApp-c47="" fill="none" stroke="black" stroke-width="13.8757" d="M7756 2625c38,39 65,125 84,241 3,83 6,165 8,248 -43,-10 -87,-21 -131,-31 0,0 0,0 0,0 28,-119 11,-300 27,-379 4,-26 8,-53 12,-79z"></path>
      <path _ngcontent-serverApp-c47="" fill="none" stroke="black" stroke-width="13.8757" d="M7848 3114l25 380 -186 0c-6,0 -11,0 -17,0 -5,0 -10,0 -15,0l-3 -307 0 0c34,-15 53,-54 65,-104l0 0c44,10 88,21 131,31z"></path>
      <path _ngcontent-serverApp-c47="" fill="none" stroke="black" stroke-width="13.8757" d="M7068 4096c0,333 270,603 602,603l203 0 0 -99 -203 0c-278,0 -503,-225 -503,-504 0,-278 225,-503 503,-503 5,0 10,0 14,0l189 0 0 -99 -186 0c-6,0 -11,0 -17,0 -332,0 -602,270 -602,602z"></path>
      <circle _ngcontent-serverApp-c47="" fill="none" stroke="black" stroke-width="13.8757" transform="matrix(-2.80054E-014 1.05678 1.0393 2.75058E-014 7668.28 4096.45)" r="477"></circle>
      <circle _ngcontent-serverApp-c47="" fill="none" stroke="black" stroke-width="13.8757" transform="matrix(-2.08861E-014 0.785915 0.77292 2.04697E-014 7668.28 4096.45)" r="477"></circle>
      <circle _ngcontent-serverApp-c47="" fill="none" stroke="black" stroke-width="13.8757" transform="matrix(-5.16948E-015 0.195362 0.192132 5.08968E-015 7668.28 4096.45)" r="477"></circle>
      <path _ngcontent-serverApp-c47="" fill="none" stroke="black" stroke-width="13.8757" d="M7301 4080l0 33 277 0c-1,-5 -1,-11 -1,-17 0,-5 0,-11 1,-16l-277 0zm457 33l279 0 0 -33 -279 0c1,5 2,11 2,16 0,6 -1,12 -2,17z"></path>
      <path _ngcontent-serverApp-c47="" fill="none" stroke="black" stroke-width="13.8757" d="M7653 4464l32 0 0 -277c-5,1 -10,2 -16,2 -6,0 -11,-1 -16,-2l0 277zm32 -457l0 -278 -32 0 0 278c5,-1 10,-1 16,-1 6,0 11,0 16,1z"></path>
      <path _ngcontent-serverApp-c47="" fill="none" stroke="black" stroke-width="13.8757" d="M7917 4368l24 -23 -196 -196c-3,5 -7,9 -11,13 -4,4 -8,7 -12,10l195 196zm-300 -346l-196 -197 -24 23 197 197c3,-5 7,-9 11,-13 4,-4 8,-7 12,-10z"></path>
      <path _ngcontent-serverApp-c47="" fill="none" stroke="black" stroke-width="13.8757" d="M7941 3848l-24 -23 -195 196c4,3 8,6 12,10 4,4 8,8 11,13l196 -196zm-347 300l-197 197 24 23 196 -197c-4,-3 -8,-6 -12,-10 -4,-4 -8,-8 -11,-13z"></path>
      <polyline _ngcontent-serverApp-c47="" fill="none" stroke="black" stroke-width="13.8757" points="6884,4866 6797,6519 6771,8017 "></polyline>
      <path _ngcontent-serverApp-c47="" fill="none" stroke="black" stroke-width="13.8757" d="M6617 9533c32,-118 83,-198 137,-272 -1,155 -2,308 16,388 -70,-36 -119,-75 -153,-116z"></path>
      <line _ngcontent-serverApp-c47="" fill="none" stroke="black" stroke-width="13.8757" x1="6771" y1="8017" x2="6754" y2="9261"></line>
      <path _ngcontent-serverApp-c47="" fill="none" stroke="black" stroke-width="13.8757" d="M6754 9261c80,33 164,59 253,75 -12,126 -8,252 11,377 -87,-8 -169,-30 -248,-63 0,-1 0,-1 -1,-2 1,0 1,1 1,1 -18,-80 -17,-233 -16,-388z"></path>
      <path _ngcontent-serverApp-c47="" fill="none" stroke="black" stroke-width="13.8757" d="M7654 3471c-533,-36 -826,339 -680,841 112,382 378,424 583,458l0 1709"></path>
      <path _ngcontent-serverApp-c47="" fill="none" stroke="#373435" stroke-width="13.8757" d="M6974 4312c112,382 378,424 583,458l0 92c-205,-36 -438,-18 -673,4 8,-294 24,-573 53,-829 0,-2 0,-4 1,-6 -4,87 8,182 36,281z"></path>
      <path _ngcontent-serverApp-c47="" fill="none" stroke="black" stroke-width="13.8757" d="M7068 8270c0,333 270,602 602,602l137 0 0 -98 -137 0c-278,0 -503,-226 -503,-504 0,-278 225,-504 503,-504 5,0 10,0 14,0l153 0 0 -98 -150 0c-6,0 -11,0 -17,0 -332,0 -602,269 -602,602z"></path>
      <circle _ngcontent-serverApp-c47="" fill="none" stroke="black" stroke-width="13.8757" transform="matrix(-2.80054E-014 1.05678 1.0393 2.75058E-014 7668.28 8269.95)" r="477"></circle>
      <circle _ngcontent-serverApp-c47="" fill="none" stroke="black" stroke-width="13.8757" transform="matrix(-2.08861E-014 0.785915 0.77292 2.04697E-014 7668.28 8269.95)" r="477"></circle>
      <circle _ngcontent-serverApp-c47="" fill="none" stroke="black" stroke-width="13.8757" transform="matrix(-5.16948E-015 0.195362 0.192132 5.08968E-015 7668.28 8269.95)" r="477"></circle>
      <path _ngcontent-serverApp-c47="" fill="none" stroke="black" stroke-width="13.8757" d="M7301 8254l0 32 277 0c-1,-5 -1,-10 -1,-16 0,-6 0,-11 1,-16l-277 0zm457 32l279 0 0 -32 -279 0c1,5 2,10 2,16 0,6 -1,11 -2,16z"></path>
      <path _ngcontent-serverApp-c47="" fill="none" stroke="black" stroke-width="13.8757" d="M7653 8638l32 0 0 -277c-5,1 -10,1 -16,1 -6,0 -11,0 -16,-1l0 277zm32 -458l0 -278 -32 0 0 278c5,0 10,-1 16,-1 6,0 11,1 16,1z"></path>
      <path _ngcontent-serverApp-c47="" fill="none" stroke="black" stroke-width="13.8757" d="M7917 8542l24 -24 -196 -195c-3,4 -7,8 -11,12 -4,4 -8,8 -12,11l195 196zm-300 -347l-196 -197 -24 23 197 197c3,-4 7,-8 11,-12 4,-4 8,-8 12,-11z"></path>
      <path _ngcontent-serverApp-c47="" fill="none" stroke="black" stroke-width="13.8757" d="M7941 8021l-24 -23 -195 196c4,3 8,7 12,11 4,4 8,8 11,12l196 -196zm-347 301l-197 196 24 24 196 -197c-4,-3 -8,-7 -12,-11 -4,-4 -8,-8 -11,-12z"></path>
      <line _ngcontent-serverApp-c47="" fill="none" stroke="black" stroke-width="13.8757" x1="7557" y1="6479" x2="7557" y2="7572"></line>
      <path _ngcontent-serverApp-c47="" fill="none" stroke="black" stroke-width="13.8757" d="M7018 9713c66,3 121,24 145,96 76,66 216,47 325,39 21,-187 62,-173 202,-305 39,-223 78,-447 117,-671 -46,0 -91,0 -137,0 -133,0 -256,-43 -356,-116 0,0 0,0 0,0 -21,168 -42,337 -63,505 -7,42 -22,78 -65,90 -59,-5 -119,-9 -179,-13 0,0 0,0 0,0 -12,125 -8,250 11,375z"></path>
      <line _ngcontent-serverApp-c47="" fill="none" stroke="black" stroke-width="13.8757" x1="7418" y1="2711" x2="7391" y2="3253"></line>
      <line _ngcontent-serverApp-c47="" fill="none" stroke="black" stroke-width="13.8757" x1="7521" y1="2696" x2="7493" y2="3227"></line>
      <path _ngcontent-serverApp-c47="" fill="none" stroke="black" stroke-width="13.8757" d="M7391 3253c-1,0 0,310 0,310"></path>
      <line _ngcontent-serverApp-c47="" fill="none" stroke="black" stroke-width="13.8757" x1="7873" y1="4699" x2="7837" y2="7668"></line>
      <path _ngcontent-serverApp-c47="" fill="none" stroke="#373435" stroke-width="13.8757" d="M7557 7571c23,-17 45,-35 67,-52 141,-107 80,-661 105,-1014l12 -1590c-58,-25 -120,-42 -184,-53l0 -92c-205,-34 -471,-76 -583,-458 -28,-99 -40,-194 -36,-281 20,-148 64,-263 129,-350 77,-93 187,-160 324,-191 0,42 0,73 0,73 -192,100 -323,302 -323,533 0,333 270,603 602,603l203 0 -35 2885 -281 -13z"></path>
      <path _ngcontent-serverApp-c47="" fill="none" stroke="#373435" stroke-width="13.8757" d="M7520 7597c13,-9 25,-18 37,-26l281 13 -281 -12 -37 25 0 0z"></path>
      <path _ngcontent-serverApp-c47="" fill="none" stroke="#373435" stroke-width="13.8757" d="M7299 8876l-48 385c-7,42 -22,78 -65,90l-179 -13 0 0c0,-1 0,-1 0,-2 -89,-16 -173,-42 -253,-75l17 -1244c15,-3 31,-11 50,-22 70,-42 144,-81 217,-121 -69,95 -108,200 -121,295 -28,205 33,543 382,708l0 -1z"></path>
      <path _ngcontent-serverApp-c47="" fill="none" stroke="#373435" stroke-width="13.8757" d="M7687 7668l-17 0c6,0 11,0 17,0z"></path>
      <path _ngcontent-serverApp-c47="" fill="none" stroke="black" stroke-width="13.8757" d="M7488 9848c213,-75 107,-64 165,-113 57,-48 69,1 63,-85 -1,-69 -5,-138 -9,-206l0 0 -17 99c-140,132 -181,118 -202,305z"></path>
      <path _ngcontent-serverApp-c47="" fill="none" stroke="black" stroke-width="13.8757" d="M6763 9732l231 27 29 30 137 10c-26,-64 -79,-84 -142,-86 -87,-8 -169,-30 -248,-63l-7 82z"></path>
      <line _ngcontent-serverApp-c47="" fill="none" stroke="black" stroke-width="13.8757" x1="7136" y1="2730" x2="7162" y2="2775"></line>
      <path _ngcontent-serverApp-c47="" fill="none" stroke="black" stroke-width="13.8757" d="M7237 2684c2,-1 22,37 22,37"></path>
      <line _ngcontent-serverApp-c47="" fill="none" stroke="black" stroke-width="13.8757" x1="7336" y1="2650" x2="7347" y2="2690"></line>
      <line _ngcontent-serverApp-c47="" fill="none" stroke="black" stroke-width="13.8757" x1="7429" y1="2628" x2="7429" y2="2673"></line>
      <path _ngcontent-serverApp-c47="" fill="none" stroke="black" stroke-width="13.8757" d="M7512 2617c-2,0 4,50 4,50"></path>
      <line _ngcontent-serverApp-c47="" fill="none" stroke="black" stroke-width="13.8757" x1="7618" y1="2613" x2="7618" y2="2672"></line>
      <path _ngcontent-serverApp-c47="" fill="none" stroke="#373435" stroke-width="6.93981" d="M6217 7635c-74,-299 -91,-624 -93,-928l572 -131c-12,420 -19,881 -32,1302l39 -1335 3 -91 -4 91 -614 142c-13,317 14,641 94,974l481 275 1 -50 -447 -249z"></path>
      <path _ngcontent-serverApp-c47="" fill="none" stroke="#373435" stroke-width="6.93981" d="M6090 6635l616 -183 1 -39c-195,61 -375,119 -570,181 19,-691 168,-1074 612,-1634l1 -44c-203,180 -422,558 -528,843 -69,288 -117,579 -132,876z"></path>
      <path _ngcontent-serverApp-c47="" fill="none" stroke="#373435" stroke-width="6.93981" d="M6700 4822l50 94c34,-33 80,-48 134,-50 8,-294 24,-573 53,-829 0,-2 0,-5 1,-7 1,-36 6,-71 13,-104 23,-180 55,-348 95,-499l-18 -467c-49,62 -60,106 -83,206 -108,463 -174,982 -230,1516l-15 140z"></path>
      <line _ngcontent-serverApp-c47="" fill="none" stroke="black" stroke-width="6.93981" x1="7557" y1="4770" x2="7872" y2="4774"></line>
      <path _ngcontent-serverApp-c47="" fill="none" stroke="#373435" stroke-width="6.93981" d="M7391 3490c-137,31 -246,98 -324,190 0,0 0,0 0,1 -65,87 -109,202 -129,350 0,0 0,1 0,1 57,-431 318,-588 716,-561 -96,-7 -184,0 -263,19zm-323 606c0,-231 131,-433 323,-533 79,-42 169,-66 264,-69l-1 -23c-96,-7 -184,-2 -263,14 -136,28 -245,91 -324,195 0,0 0,0 0,1 -65,87 -109,202 -129,350l0 1c-4,87 8,181 36,280 112,382 378,424 583,458l0 -81 4 0c-281,-52 -493,-297 -493,-593z"></path>
      <line _ngcontent-serverApp-c47="" fill="none" stroke="black" stroke-width="6.93981" x1="6116" y1="7682" x2="6195" y2="7711"></line>
    </g>
  </g>
</svg>